HIERARCHY
ROOT Hips
{
    OFFSET 0.000000 0.000000 0.000000
    CHANNELS 6 Xposition Yposition Zposition Zrotation Xrotation Yrotation
    JOINT Spine
    {
        OFFSET -0.000000 7.236184 0.000000
        CHANNELS 3 Zrotation Xrotation Yrotation
        JOINT Spine1
        {
            OFFSET -0.000000 20.420147 0.000000
            CHANNELS 3 Zrotation Xrotation Yrotation
            JOINT Neck
            {
                OFFSET -0.000000 20.336288 1.848754
                CHANNELS 3 Zrotation Xrotation Yrotation
                JOINT Head
                {
                    OFFSET -0.000000 12.354461 -1.764923
                    CHANNELS 3 Zrotation Xrotation Yrotation
                    End Site
                    {
                        OFFSET -0.000000 22.061537 0.000000
                    }
                }
            }
            JOINT LeftShoulder
            {
                OFFSET 3.573296 18.396038 -0.314103
                CHANNELS 3 Zrotation Xrotation Yrotation
                JOINT LeftArm
                {
                    OFFSET 10.880760 0.000000 0.000000
                    CHANNELS 3 Zrotation Xrotation Yrotation
                    JOINT LeftForeArm
                    {
                        OFFSET 27.185530 0.000000 0.000000
                        CHANNELS 3 Zrotation Xrotation Yrotation
                        JOINT LeftHand
                        {
                            OFFSET 27.825975 0.000000 0.000000
                            CHANNELS 3 Zrotation Xrotation Yrotation
                            End Site
                            {
                                OFFSET 13.236923 0.000000 0.000000
                            }
                        }
                    }
                }
            }
            JOINT RightShoulder
            {
                OFFSET -3.474926 18.396038 -0.314103
                CHANNELS 3 Zrotation Xrotation Yrotation
                JOINT RightArm
                {
                    OFFSET -10.880760 0.000000 0.000000
                    CHANNELS 3 Zrotation Xrotation Yrotation
                    JOINT RightForeArm
                    {
                        OFFSET -27.185530 0.000000 0.000000
                        CHANNELS 3 Zrotation Xrotation Yrotation
                        JOINT RightHand
                        {
                            OFFSET -27.825975 0.000000 0.000000
                            CHANNELS 3 Zrotation Xrotation Yrotation
                            End Site
                            {
                                OFFSET -13.236923 0.000000 0.000000
                            }
                        }
                    }
                }
            }
        }
    }
    JOINT LeftUpLeg
    {
        OFFSET 8.824615 0.000000 0.000000
        CHANNELS 3 Zrotation Xrotation Yrotation
        JOINT LeftLeg
        {
            OFFSET -0.000000 -35.111282 0.000000
            CHANNELS 3 Zrotation Xrotation Yrotation
            JOINT LeftFoot
            {
                OFFSET -0.000000 -42.324711 0.000000
                CHANNELS 3 Zrotation Xrotation Yrotation
                JOINT LeftToeBase
                {
                    OFFSET -0.000000 -5.735999 13.236923
                    CHANNELS 3 Zrotation Xrotation Yrotation
                    End Site
                    {
                        OFFSET -0.000000 0.000000 3.529846
                    }
                }
            }
        }
    }
    JOINT RightUpLeg
    {
        OFFSET -8.824615 0.000000 0.000000
        CHANNELS 3 Zrotation Xrotation Yrotation
        JOINT RightLeg
        {
            OFFSET -0.000000 -35.111282 0.000000
            CHANNELS 3 Zrotation Xrotation Yrotation
            JOINT RightFoot
            {
                OFFSET -0.000000 -42.324711 0.000000
                CHANNELS 3 Zrotation Xrotation Yrotation
                JOINT RightToeBase
                {
                    OFFSET -0.000000 -5.735999 13.236923
                    CHANNELS 3 Zrotation Xrotation Yrotation
                    End Site
                    {
                        OFFSET -0.000000 0.000000 3.529846
                    }
                }
            }
        }
    }
}
MOTION
Frames:    8
Frame Time:    0.008333
-2.807864    82.277313    100.526215    -3.146313    -6.454140    -178.515686    2.565303    -9.266470    2.021935    -7.440433    10.963930    2.529117    0.015773    8.954757    -0.847612    -17.536386    -33.752724    -8.430038    14.070422    -2.276287    -16.849817    -18.111601    20.050985    -61.899017    17.205824    11.751152    -11.231242    45.303421    11.802896    -3.957061    -12.132991    2.654010    15.793791    12.834579    18.854132    57.428757    -24.938272    3.208043    28.600075    -44.777081    8.793678    2.055436    5.143074    -17.129238    -0.324760    0.678591    24.894068    5.867346    -11.694454    -6.960324    -16.484354    0.093448    -3.327981    -0.104228    -5.986991    -14.762944    0.396049    1.012190    23.824440    5.718347    -0.535423    -11.384014    -14.397818    -2.007981    -1.489049    2.176245    
-2.561494    82.297279    100.504776    -3.332323    -6.482803    -178.395187    2.656319    -9.357412    2.033001    -7.467329    10.930325    2.531020    -0.072847    9.451923    -0.730954    -18.309536    -33.715759    -8.634634    13.817739    -1.928636    -16.461985    -18.220596    20.360943    -61.083328    17.720463    11.651324    -12.007875    45.440891    11.808204    -4.103030    -11.990610    2.839818    15.463030    12.652291    19.368448    56.916985    -25.795088    2.909923    30.141983    -44.690163    9.076033    2.119540    5.128961    -17.076872    -0.377093    0.651708    24.692663    5.908855    -11.777621    -6.657493    -16.594042    0.048910    -3.414261    -0.054561    -6.020881    -14.754985    0.349010    1.029539    23.843910    5.682750    -0.684710    -11.442605    -14.455965    -2.018558    -1.465483    2.187637    
-2.320957    82.323441    100.477722    -3.517927    -6.519843    -178.272110    2.741028    -9.453578    2.041663    -7.482584    10.882578    2.528780    -0.166175    9.942122    -0.617121    -19.039255    -33.650093    -8.819256    13.546993    -1.561049    -16.037764    -18.344738    20.698925    -60.217781    18.279789    11.531550    -12.870948    45.639408    11.803087    -4.282123    -11.841472    3.041331    15.097822    12.472523    19.921503    56.344128    -26.697765    2.581448    31.774052    -44.654861    9.386447    2.201098    5.111085    -17.015997    -0.425276    0.625439    24.467670    5.932807    -11.856422    -6.343739    -16.693247    -0.000059    -3.499086    0.000063    -6.060482    -14.727936    0.320191    1.057607    23.821852    5.628306    -0.829739    -11.486670    -14.516386    -2.026554    -1.444161    2.196236    
-2.084721    82.355766    100.445053    -3.704857    -6.565901    -178.147583    2.819599    -9.554927    2.048489    -7.485682    10.820019    2.522744    -0.266361    10.426972    -0.505099    -19.729351    -33.556793    -8.983987    13.255898    -1.170830    -15.573740    -18.486582    21.064661    -59.294266    18.884104    11.390842    -13.826487    45.892532    11.790884    -4.491745    -11.686654    3.260371    14.697076    12.303114    20.511724    55.704807    -27.645201    2.212106    33.500107    -44.663235    9.723693    2.294587    5.089222    -16.946693    -0.467772    0.599520    24.218561    5.938574    -11.931172    -6.017821    -16.781710    -0.053213    -3.582630    0.059377    -6.106482    -14.683891    0.308449    1.095959    23.760456    5.557831    -0.971865    -11.517144    -14.579941    -2.032219    -1.424510    2.202314    
-1.857293    82.393143    100.407745    -3.889589    -6.620043    -178.025970    2.890747    -9.658442    2.053907    -7.476872    10.743884    2.513731    -0.372782    10.895400    -0.396904    -20.365385    -33.439812    -9.124710    12.951388    -0.765546    -15.079667    -18.645044    21.447145    -58.330822    19.516558    11.232660    -14.852168    46.187267    11.775673    -4.722912    -11.531196    3.491996    14.270649    12.155464    21.122869    55.011902    -28.609730    1.801661    35.276260    -44.705597    10.076698    2.390754    5.064155    -16.870977    -0.502318    0.574220    23.951900    5.927028    -11.999988    -5.687288    -16.857986    -0.108916    -3.663320    0.121554    -6.157518    -14.626223    0.310830    1.141431    23.664562    5.477915    -1.108327    -11.534744    -14.645164    -2.035904    -1.406620    2.206252    
-1.635645    82.435509    100.365639    -4.074556    -6.683008    -177.907486    2.955510    -9.764500    2.058510    -7.455953    10.653347    2.502174    -0.487425    11.351630    -0.290725    -20.956617    -33.299706    -9.243454    12.629767    -0.340419    -14.549886    -18.823391    21.848152    -57.314415    20.181042    11.055261    -15.957726    46.517654    11.760861    -4.973515    -11.375065    3.737957    13.814654    12.035905    21.758680    54.256420    -29.593592    1.339284    37.115894    -44.772793    10.446323    2.483507    5.036016    -16.788683    -0.528727    0.548661    23.666061    5.900325    -12.063896    -5.348891    -16.923931    -0.167273    -3.742292    0.186711    -6.213962    -14.556871    0.323842    1.192433    23.536863    5.393407    -1.240968    -11.541170    -14.713185    -2.037990    -1.390158    2.208461    
-1.421422    82.481918    100.319351    -4.258170    -6.754116    -177.794800    3.013747    -9.871281    2.062846    -7.423310    10.549471    2.488850    -0.610805    11.790670    -0.187055    -21.497568    -33.139919    -9.339238    12.295150    0.101001    -13.989136    -19.022322    22.261192    -56.253525    20.867851    10.860070    -17.129410    46.872654    11.749713    -5.236491    -11.221472    3.994879    13.333692    11.952939    22.410925    53.444752    -30.578224    0.824237    38.994568    -44.854805    10.826085    2.564645    5.005550    -16.700949    -0.546423    0.522590    23.364712    5.861660    -12.122165    -5.006202    -16.980206    -0.227075    -3.818643    0.253501    -6.274835    -14.478933    0.343208    1.245965    23.382412    5.311382    -1.368988    -11.537844    -14.783669    -2.038937    -1.374533    2.209439    
-1.213400    82.531967    100.268936    -4.441259    -6.833672    -177.688873    3.066128    -9.978307    2.067488    -7.379178    10.431971    2.474375    -0.742919    12.213571    -0.085555    -21.993479    -32.962234    -9.413260    11.947120    0.560367    -13.395275    -19.245136    22.685354    -55.142654    21.576193    10.645773    -18.368164    47.245358    11.745049    -5.507562    -11.071172    4.262574    12.826052    11.913006    23.080570    52.573009    -31.558426    0.251012    40.912518    -44.943005    11.214851    2.627571    4.973080    -16.608089    -0.555886    0.495267    23.047997    5.814244    -12.175380    -4.658363    -17.028111    -0.287991    -3.892886    0.321552    -6.340042    -14.394662    0.364856    1.300092    23.204546    5.237787    -1.493066    -11.526299    -14.857388    -2.039167    -1.359689    2.209642    
